<svg data-v-0c317739="" version="1.0" xmlns="http://www.w3.org/2000/svg" width="100%" height="100%" viewBox="0 0 340.000000 250.000000" preserveAspectRatio="xMidYMid meet" color-interpolation-filters="sRGB" class="el-tooltip" style="margin: auto;"><rect data-v-0c317739="" x="0" y="0" width="100%" height="100%" fill="#fff" fill-opacity="1"></rect> <rect data-v-0c317739="" x="0" y="0" width="100%" height="100%" fill="url(#watermark)" fill-opacity="1" class="watermarklayer"></rect> <g data-v-0c317739="" fill="#4f4c4d" class="iconsvg" transform="translate(56.94999694824219,84.28061294555664)"><g class="iconsvg-imagesvg" transform="translate(90.05000305175781,0)"><rect fill="#4f4c4d" fill-opacity="0" x="0" y="0" width="46" height="39.358066780306"></rect> <svg x="0" y="0" width="46" height="39.358066780306" class="imagesvg-svg"><svg xmlns="http://www.w3.org/2000/svg" viewBox="0 0 797.84 682.64"><defs><linearGradient id="a39085294-6c86-4236-bd36-6ec8e49d8e70" x1="144.54" y1="58.66" x2="802.58" y2="58.66" gradientTransform="rotate(66.56 341.455 250.406)" gradientUnits="userSpaceOnUse"><stop offset="0" stop-color="#c2278f"></stop><stop offset=".96" stop-color="#ef4136"></stop></linearGradient><linearGradient id="b25da7016-dd99-48fd-919e-df295a1288c4" x1="194.66" y1="-33.85" x2="773.95" y2="-33.85" gradientTransform="rotate(66.56 341.455 250.406)" gradientUnits="userSpaceOnUse"><stop offset="0" stop-color="#ef4136"></stop><stop offset="1" stop-color="#f7941e"></stop></linearGradient><linearGradient id="c67da4214-7783-4129-8c42-ed569923a718" x1="95.7" y1="151" x2="832.29" y2="151" gradientTransform="rotate(66.56 341.455 250.406)" gradientUnits="userSpaceOnUse"><stop offset="0" stop-color="#662d91"></stop><stop offset="1" stop-color="#92278f"></stop></linearGradient></defs><g><g><path fill="url(#a39085294-6c86-4236-bd36-6ec8e49d8e70)" d="M668.02 611.44L405.44 8.04l82.37 6.38 237.72 547.72-57.51 49.3z"></path><path fill="url(#b25da7016-dd99-48fd-919e-df295a1288c4)" d="M741.97 548.17L510.19 17.26l83.03 6.99 204.62 474.62-55.87 49.3z"></path><path fill="url(#c67da4214-7783-4129-8c42-ed569923a718)" d="M594.89 675.53L301.2 0l81.87 5.21 269.33 620.2-57.51 50.12z"></path><path fill="#4f4c4d" d="M331.13 118.44L124.07 538.31l102.71-64.09 140.51-270.33-36.16-85.45zM405.9 295.92l-27.93-68.2-122.43 228.42 100.24-64.08 50.12-96.14zM284.3 8.34L0 618.01l96.96-61.62L321.27 96.25 284.3 8.34zM532.99 586.24L133.93 553.1l105.17-64.09 260.87 21.07 33.02 76.16zM458.02 413.3l33.18 76.55-230.73-18.92 108.46-64.08 89.09 6.45zM574.79 682.64L7.18 633.56l103.74-64.03 430.84 36.94 33.03 76.17z"></path></g></g></svg></svg> <!----></g> <g transform="translate(0,46.35806655883789)"><g class="iconsvg-namesvg"><g><path transform="translate(-1.9499788045782,27.260703688003)" d="M18.17-23.46L5.03-23.46L5.03-20.24L1.95-20.24L1.95-26.81L22.76-26.81L22.76-23.54L6.36-3.35L20.10-3.35L20.10-6.57L23.20-6.57L23.20 0L1.95 0L1.95-3.41L18.17-23.46ZM32.33-4.31L32.33-4.31Q33.93-2.52 36.31-2.52L36.31-2.52L36.31-2.52Q38.71-2.52 40.29-4.33L40.29-4.33L40.29-4.33Q41.94-6.22 41.94-9.79L41.94-9.79L41.94-9.79Q41.94-13.36 40.27-15.23L40.27-15.23L40.27-15.23Q38.69-17.02 36.31-17.04L36.31-17.04L36.31-17.04Q33.93-17.04 32.33-15.25L32.33-15.25L32.33-15.25Q30.67-13.36 30.67-9.79L30.67-9.79L30.67-9.79Q30.67-6.20 32.33-4.31L32.33-4.31M30.19-17.80L30.19-17.80L30.19-17.80Q32.72-19.99 36.27-19.99L36.27-19.99L36.64-19.99L36.64-19.99Q40.44-19.85 42.90-17.32L42.90-17.32L42.90-17.32Q45.08-15.07 45.47-11.00L45.47-11.00L45.47-11.00Q45.53-10.26 45.53-9.54L45.53-9.54L45.53-9.54Q45.53-6.49 44.32-4.15L44.32-4.15L44.32-4.15Q43.19-1.99 41.03-0.80L41.03-0.80L41.03-0.80Q38.82 0.41 36.31 0.41L36.31 0.41L36.31 0.41Q35.72 0.41 35.12 0.35L35.12 0.35L35.12 0.35Q31.82-0.04 29.70-2.24L29.70-2.24L29.70-2.24Q27.10-4.93 27.10-9.63L27.10-9.63L27.10-10.12L27.10-10.12Q27.22-15.23 30.19-17.80ZM52.32-3.08L52.32-16.73L49.43-16.73L49.43-19.48L52.32-19.48L52.32-21.43L52.32-21.43Q52.32-25.10 54.37-26.46L54.37-26.46L54.37-26.46Q55.59-27.26 57.72-27.26L57.72-27.26L57.72-27.26Q59.12-27.26 60.94-26.91L60.94-26.91L60.41-23.85L60.41-23.85Q59.26-24.06 58.40-24.06L58.40-24.06L58.40-24.06Q56.96-24.06 56.37-23.46L56.37-23.46L56.37-23.46Q55.85-22.91 55.77-21.57L55.77-21.57L55.77-21.57Q55.75-21.27 55.75-20.88L55.75-20.88L55.75-20.46L55.75-20.46Q55.79-19.58 55.79-19.48L55.79-19.48L59.53-19.48L59.53-16.73L55.79-16.73L55.79-3.08L58.13-3.08L58.13 0L49.43 0L49.43-3.08L52.32-3.08ZM65.87-3.08L65.87-16.73L62.98-16.73L62.98-19.48L65.87-19.48L65.87-21.43L65.87-21.43Q65.87-25.10 67.92-26.46L67.92-26.46L67.92-26.46Q69.15-27.26 71.27-27.26L71.27-27.26L71.27-27.26Q72.68-27.26 74.49-26.91L74.49-26.91L73.96-23.85L73.96-23.85Q72.81-24.06 71.95-24.06L71.95-24.06L71.95-24.06Q70.51-24.06 69.93-23.46L69.93-23.46L69.93-23.46Q69.40-22.91 69.32-21.57L69.32-21.57L69.32-21.57Q69.30-21.27 69.30-20.88L69.30-20.88L69.30-20.46L69.30-20.46Q69.34-19.58 69.34-19.48L69.34-19.48L73.09-19.48L73.09-16.73L69.34-16.73L69.34-3.08L71.68-3.08L71.68 0L62.98 0L62.98-3.08L65.87-3.08ZM84.06-0.08L77.88-16.40L75.07-16.40L75.07-19.48L83.77-19.48L83.77-16.40L81.57-16.40L85.80-4.19L90.05-16.40L87.63-16.40L87.63-19.48L96.33-19.48L96.33-16.40L93.52-16.40L87.30 0.25L87.30 0.25Q85.90 4.00 85.10 5.23L85.10 5.23L85.10 5.23Q83.38 7.82 80.67 7.82L80.67 7.82L80.67 7.82Q79.72 7.82 78.47 7.39L78.47 7.39L78.08 4.09L78.08 4.09Q79.31 4.43 80.09 4.43L80.09 4.43L80.09 4.43Q81.72 4.43 82.58 3.31L82.58 3.31L82.58 3.31Q83.07 2.69 83.77 0.68L83.77 0.68L83.77 0.68Q83.83 0.55 84.06-0.08L84.06-0.08ZM126.01-23.46L112.86-23.46L112.86-20.24L109.78-20.24L109.78-26.81L130.59-26.81L130.59-23.54L114.19-3.35L127.94-3.35L127.94-6.57L131.04-6.57L131.04 0L109.78 0L109.78-3.41L126.01-23.46ZM141.06-26.81L141.06-17.45L141.06-17.45Q143.32-19.93 146.72-19.93L146.72-19.93L146.72-19.93Q153.48-19.93 153.48-12.32L153.48-12.32L153.48-3.08L156.12-3.08L156.12 0L147.42 0L147.42-3.08L149.99-3.08L149.99-12.32L149.99-12.32Q149.99-14.41 149.08-15.58L149.08-15.58L149.08-15.58Q148.06-16.89 146.03-16.89L146.03-16.89L146.03-16.89Q144.63-16.89 143.40-16.18L143.40-16.18L143.40-16.18Q142.11-15.42 141.59-14.16L141.59-14.16L141.59-14.16Q141.06-12.91 141.06-10.65L141.06-10.65L141.06-3.08L143.64-3.08L143.64 0L134.94 0L134.94-3.08L137.57-3.08L137.57-23.73L134.94-23.73L134.94-26.81L141.06-26.81ZM173.41-8.76L173.41-8.76L173.41-8.76Q172.11-9.24 170.53-9.24L170.53-9.24L170.53-9.24Q169.16-9.24 167.58-8.87L167.58-8.87L167.58-8.87Q163.72-7.98 163.72-5.30L163.72-5.30L163.72-5.30Q163.72-3.84 164.91-3.04L164.91-3.04L164.91-3.04Q165.94-2.36 167.48-2.36L167.48-2.36L167.48-2.36Q169.24-2.36 170.64-3.10L170.64-3.10L170.64-3.10Q172.20-3.90 172.90-5.38L172.90-5.38L172.90-5.38Q173.41-6.45 173.41-8.76M177.06-3.10L179.16-3.10L179.16-0.02L174.35-0.02L174.35-0.08L174.35-0.08Q173.88-1.05 173.72-2.28L173.72-2.28L173.72-2.28Q170.45 0.41 166.70 0.41L166.70 0.41L166.70 0.41Q163.90 0.41 162.06-0.96L162.06-0.96L162.06-0.96Q160.02-2.50 160.02-5.21L160.02-5.21L160.02-5.21Q160.02-8.15 162.39-9.77L162.39-9.77L162.39-9.77Q164.62-11.27 168.77-11.45L168.77-11.45L168.77-11.45Q169.55-11.49 170.23-11.49L170.23-11.49L170.23-11.49Q172.36-11.49 173.43-11.11L173.43-11.11L173.43-11.82L173.43-11.82Q173.43-15.15 172.55-15.93L172.55-15.93L172.55-15.93Q171.40-16.96 169.34-17.06L169.34-17.06L168.95-17.06L168.95-17.06Q167.15-17.06 166.00-16.22L166.00-16.22L166.00-16.22Q164.95-15.44 164.42-13.44L164.42-13.44L164.40-13.34L160.99-13.81L161.03-13.92L161.03-13.92Q161.89-18.00 165.42-19.27L165.42-19.27L165.42-19.27Q167.60-20.05 169.67-20.05L169.67-20.05L169.67-20.05Q171.60-20.05 173.43-19.36L173.43-19.36L173.43-19.36Q174.99-18.76 175.75-17.86L175.75-17.86L175.75-17.86Q176.47-16.96 176.79-15.58L176.79-15.58L176.79-15.58Q176.94-14.72 176.94-12.56L176.94-12.56L176.94-12.56Q176.94-4.15 177.06-3.10L177.06-3.10ZM189.13-16.98L189.13-16.98Q191.27-19.93 195.15-19.93L195.15-19.93L195.15-19.93Q197.65-19.93 199.35-18.76L199.35-18.76L199.35-18.76Q201.18-17.51 201.67-15.15L201.67-15.15L201.67-15.15Q201.86-14.22 201.86-11.95L201.86-11.95L201.86-3.08L204.49-3.08L204.49 0L198.37 0L198.37-11.84L198.37-11.84Q198.37-13.81 198.00-14.78L198.00-14.78L198.00-14.78Q197.18-16.87 194.47-16.87L194.47-16.87L194.47-16.87Q191.84-16.87 190.55-15.01L190.55-15.01L190.55-15.01Q189.46-13.42 189.46-10.63L189.46-10.63L189.46-3.08L192.03-3.08L192.03 0L183.36 0L183.36-3.08L185.99-3.08L185.99-16.38L183.06-16.38L183.06-19.48L188.25-19.48L189.13-16.98ZM211.98-10.08L211.98-10.08Q211.98-7.16 213.07-5.26L213.07-5.26L213.07-5.26Q214.42-2.92 217.15-2.92L217.15-2.92L217.15-2.92Q219.33-2.92 220.84-4.62L220.84-4.62L220.84-4.62Q222.32-6.32 222.32-9.98L222.32-9.98L222.32-9.98Q222.32-13.47 220.80-15.25L220.80-15.25L220.80-15.25Q219.26-17.00 217.09-17.00L217.09-17.00L217.09-17.00Q214.50-17.00 213.13-14.72L213.13-14.72L213.13-14.72Q211.98-12.83 211.98-10.08L211.98-10.08M223.23-19.48L228.05-19.48L228.05-16.40L225.59-16.40L225.59-2.73L225.59-2.73Q225.59 1.79 224.68 3.70L224.68 3.70L224.68 3.70Q222.65 7.82 216.78 7.82L216.78 7.82L216.78 7.82Q213.58 7.82 211.51 6.45L211.51 6.45L211.51 6.45Q209.15 4.89 209.06 1.95L209.06 1.95L212.45 1.95L212.45 1.95Q212.84 4.89 216.76 4.89L216.76 4.89L216.76 4.89Q220.91 4.89 221.83 1.54L221.83 1.54L221.83 1.54Q222.06 0.62 222.06-1.93L222.06-1.93L222.06-2.34L222.06-2.34Q219.94 0 216.84 0L216.84 0L216.84 0Q212.90 0 210.54-3.02L210.54-3.02L210.54-3.02Q208.39-5.79 208.39-9.85L208.39-9.85L208.39-9.85Q208.39-13.94 210.50-16.77L210.50-16.77L210.50-16.77Q212.84-19.93 216.86-19.93L216.86-19.93L216.86-19.93Q220.17-19.93 222.36-17.35L222.36-17.35L223.23-19.48Z"></path></g> <!----></g> <!----></g></g></svg>