<svg data-v-0c317739="" version="1.0" xmlns="http://www.w3.org/2000/svg" width="100%" height="100%" viewBox="0 0 340.000000 250.000000" preserveAspectRatio="xMidYMid meet" color-interpolation-filters="sRGB" class="el-tooltip" style="margin: auto;">
 <g data-v-16bc8e0b="" fill="#6441a5" transform="translate(58.89280700683594,105.93461418151855)"><g transform="translate(0,0)"><rect x="0" y="0" width="38.130770614407524" height="38.130770614407524" rx="19.065385307203762" ry="19.065385307203762"></rect> <!----> <g transform="translate(10.420384849440088,7.970385040174952)"><g fill="#fff"><path transform="translate(-2.4609375,22.189453125)" d="M19.75 0L2.46 0L2.46-0.90L17.04-21.06L3.59-21.06L3.59-16.18L2.48-16.18L2.48-22.19L18.54-22.19L18.54-21.21L3.96-1.11L18.64-1.11L18.64-6.01L19.75-6.01L19.75 0Z"></path></g></g></g> <g transform="translate(45.13077163696289,2.250385284423828)"><g><g><path transform="translate(-1.999629698204,26.345121273838)" d="M16.05 0L2.00 0L2.00-0.73L13.85-17.11L2.92-17.11L2.92-13.15L2.02-13.15L2.02-18.03L15.06-18.03L15.06-17.23L3.22-0.90L15.15-0.90L15.15-4.88L16.05-4.88L16.05 0ZM19.41-8.67L19.41-9.36L19.41-9.36Q19.41-13.33 21.60-15.85L21.60-15.85L21.60-15.85Q23.80-18.36 27.29-18.36L27.29-18.36L27.29-18.36Q30.81-18.36 33.00-15.85L33.00-15.85L33.00-15.85Q35.19-13.33 35.19-9.36L35.19-9.36L35.19-8.67L35.19-8.67Q35.19-4.68 33.00-2.17L33.00-2.17L33.00-2.17Q30.81 0.35 27.33 0.35L27.33 0.35L27.33 0.35Q23.81 0.35 21.61-2.17L21.61-2.17L21.61-2.17Q19.41-4.68 19.41-8.67L19.41-8.67M20.31-9.36L20.31-8.67L20.31-8.67Q20.31-5.27 22.21-2.91L22.21-2.91L22.21-2.91Q24.11-0.55 27.33-0.55L27.33-0.55L27.33-0.55Q30.49-0.55 32.39-2.92L32.39-2.92L32.39-2.92Q34.29-5.28 34.29-8.67L34.29-8.67L34.29-9.36L34.29-9.36Q34.29-12.68 32.38-15.07L32.38-15.07L32.38-15.07Q30.46-17.46 27.29-17.46L27.29-17.46L27.29-17.46Q24.11-17.46 22.21-15.07L22.21-15.07L22.21-15.07Q20.31-12.68 20.31-9.36L20.31-9.36ZM38.83 0L38.83-0.90L41.54-0.90L41.54-17.11L38.41-17.11L38.41-18.03L41.54-18.03L41.54-21.00L41.54-21.00Q41.54-23.55 42.78-24.95L42.78-24.95L42.78-24.95Q44.03-26.35 46.26-26.35L46.26-26.35L46.26-26.35Q46.81-26.35 47.35-26.28L47.35-26.28L47.35-26.28Q47.89-26.21 48.39-26.06L48.39-26.06L48.26-25.20L48.26-25.20Q47.72-25.33 47.32-25.39L47.32-25.39L47.32-25.39Q46.91-25.45 46.27-25.45L46.27-25.45L46.27-25.45Q44.48-25.45 43.46-24.26L43.46-24.26L43.46-24.26Q42.44-23.08 42.44-21.00L42.44-21.00L42.44-18.03L47.21-18.03L47.21-17.11L42.44-17.11L42.44-0.90L45.16-0.90L45.16 0L38.83 0ZM50.86 0L50.86-0.90L53.57-0.90L53.57-17.11L50.44-17.11L50.44-18.03L53.57-18.03L53.57-21.00L53.57-21.00Q53.57-23.55 54.81-24.95L54.81-24.95L54.81-24.95Q56.06-26.35 58.29-26.35L58.29-26.35L58.29-26.35Q58.84-26.35 59.38-26.28L59.38-26.28L59.38-26.28Q59.92-26.21 60.42-26.06L60.42-26.06L60.29-25.20L60.29-25.20Q59.76-25.33 59.35-25.39L59.35-25.39L59.35-25.39Q58.94-25.45 58.31-25.45L58.31-25.45L58.31-25.45Q56.51-25.45 55.49-24.26L55.49-24.26L55.49-24.26Q54.47-23.08 54.47-21.00L54.47-21.00L54.47-18.03L59.24-18.03L59.24-17.11L54.47-17.11L54.47-0.90L57.19-0.90L57.19 0L50.86 0ZM67.22-18.03L67.22-17.13L64.85-17.13L70.44-3.27L71.10-1.47L71.20-1.47L71.30-1.73L77.19-17.13L74.82-17.13L74.82-18.03L80.15-18.03L80.15-17.13L78.19-17.13L70.52 3.00L70.52 3.00Q69.79 4.90 68.81 6.09L68.81 6.09L68.81 6.09Q67.84 7.28 65.70 7.28L65.70 7.28L65.70 7.28Q65.39 7.28 65.00 7.22L65.00 7.22L65.00 7.22Q64.62 7.17 64.44 7.10L64.44 7.10L64.59 6.25L64.59 6.25Q64.77 6.30 65.14 6.35L65.14 6.35L65.14 6.35Q65.50 6.40 65.70 6.40L65.70 6.40L65.70 6.40Q67.24 6.40 68.10 5.50L68.10 5.50L68.10 5.50Q68.95 4.60 69.62 2.83L69.62 2.83L70.70-0.10L63.87-17.13L61.91-17.13L61.91-18.03L67.22-18.03Z"></path></g> <g transform="translate(81.1500015258789,0)"><path transform="translate(-1.4663951120163,26.345121273838)" d="M16.15-15.25L7.50-3.73L12.53-3.73L12.73-6.13L16.45-6.13L16.45 0L1.47 0L1.47-2.87L10.05-14.26L5.63-14.26L5.45-11.88L1.72-11.88L1.72-18.03L16.15-18.03L16.15-15.25ZM18.61 0L18.61-2.92L20.96-3.42L20.96-22.56L18.36-23.06L18.36-26.00L25.81-26.00L25.81-15.73L25.81-15.73Q26.66-16.98 27.89-17.67L27.89-17.67L27.89-17.67Q29.13-18.36 30.63-18.36L30.63-18.36L30.63-18.36Q33.46-18.36 35.07-16.49L35.07-16.49L35.07-16.49Q36.68-14.61 36.68-10.70L36.68-10.70L36.68-3.42L39.01-2.92L39.01 0L29.71 0L29.71-2.92L31.81-3.42L31.81-10.73L31.81-10.73Q31.81-12.83 31.07-13.71L31.07-13.71L31.07-13.71Q30.33-14.58 28.86-14.58L28.86-14.58L28.86-14.58Q27.84-14.58 27.09-14.21L27.09-14.21L27.09-14.21Q26.33-13.85 25.81-13.18L25.81-13.18L25.81-3.42L27.91-2.92L27.91 0L18.61 0ZM57.67 0L52.06 0L52.06 0Q51.86-0.45 51.71-0.92L51.71-0.92L51.71-0.92Q51.56-1.40 51.47-1.88L51.47-1.88L51.47-1.88Q50.61-0.88 49.37-0.27L49.37-0.27L49.37-0.27Q48.12 0.35 46.52 0.35L46.52 0.35L46.52 0.35Q43.88 0.35 42.32-1.09L42.32-1.09L42.32-1.09Q40.76-2.53 40.76-5.02L40.76-5.02L40.76-5.02Q40.76-7.55 42.79-8.93L42.79-8.93L42.79-8.93Q44.83-10.31 48.76-10.31L48.76-10.31L51.24-10.31L51.24-12.08L51.24-12.08Q51.24-13.38 50.49-14.10L50.49-14.10L50.49-14.10Q49.74-14.81 48.27-14.81L48.27-14.81L48.27-14.81Q47.44-14.81 46.79-14.62L46.79-14.62L46.79-14.62Q46.14-14.43 45.74-14.16L45.74-14.16L45.42-12.23L41.76-12.23L41.78-16.23L41.78-16.23Q43.11-17.13 44.83-17.75L44.83-17.75L44.83-17.75Q46.56-18.36 48.59-18.36L48.59-18.36L48.59-18.36Q51.94-18.36 54.03-16.72L54.03-16.72L54.03-16.72Q56.12-15.08 56.12-12.05L56.12-12.05L56.12-4.60L56.12-4.60Q56.12-4.18 56.13-3.82L56.13-3.82L56.13-3.82Q56.14-3.45 56.19-3.12L56.19-3.12L57.67-2.92L57.67 0M47.84-3.25L47.84-3.25L47.84-3.25Q48.94-3.25 49.84-3.72L49.84-3.72L49.84-3.72Q50.74-4.20 51.24-4.92L51.24-4.92L51.24-7.67L48.76-7.67L48.76-7.67Q47.21-7.67 46.41-6.94L46.41-6.94L46.41-6.94Q45.61-6.22 45.61-5.20L45.61-5.20L45.61-5.20Q45.61-4.28 46.20-3.77L46.20-3.77L46.20-3.77Q46.79-3.25 47.84-3.25ZM59.06 0L59.06-2.92L61.39-3.42L61.39-14.60L58.81-15.10L58.81-18.03L65.92-18.03L66.14-15.45L66.14-15.45Q67.04-16.83 68.35-17.60L68.35-17.60L68.35-17.60Q69.67-18.36 71.30-18.36L71.30-18.36L71.30-18.36Q74.04-18.36 75.57-16.65L75.57-16.65L75.57-16.65Q77.10-14.93 77.10-11.26L77.10-11.26L77.10-3.42L79.44-2.92L79.44 0L70.14 0L70.14-2.92L72.22-3.42L72.22-11.25L72.22-11.25Q72.22-13.06 71.49-13.82L71.49-13.82L71.49-13.82Q70.75-14.58 69.27-14.58L69.27-14.58L69.27-14.58Q68.30-14.58 67.54-14.19L67.54-14.19L67.54-14.19Q66.77-13.80 66.25-13.08L66.25-13.08L66.25-3.42L68.22-2.92L68.22 0L59.06 0ZM81.12-8.52L81.12-8.87L81.12-8.87Q81.12-13.13 82.98-15.75L82.98-15.75L82.98-15.75Q84.83-18.36 88.18-18.36L88.18-18.36L88.18-18.36Q89.70-18.36 90.85-17.69L90.85-17.69L90.85-17.69Q92.00-17.01 92.82-15.76L92.82-15.76L93.17-18.03L97.40-18.03L97.40-0.53L97.40-0.53Q97.40 3.03 95.16 5.16L95.16 5.16L95.16 5.16Q92.92 7.28 89.00 7.28L89.00 7.28L89.00 7.28Q87.63 7.28 86.10 6.91L86.10 6.91L86.10 6.91Q84.57 6.53 83.27 5.88L83.27 5.88L84.17 2.47L84.17 2.47Q85.33 2.97 86.50 3.26L86.50 3.26L86.50 3.26Q87.67 3.55 88.97 3.55L88.97 3.55L88.97 3.55Q90.75 3.55 91.63 2.47L91.63 2.47L91.63 2.47Q92.52 1.38 92.52-0.55L92.52-0.55L92.52-1.73L92.52-1.73Q91.72-0.72 90.63-0.18L90.63-0.18L90.63-0.18Q89.55 0.35 88.15 0.35L88.15 0.35L88.15 0.35Q84.83 0.35 82.98-2.09L82.98-2.09L82.98-2.09Q81.12-4.53 81.12-8.52L81.12-8.52M85.98-8.87L85.98-8.52L85.98-8.52Q85.98-6.15 86.78-4.79L86.78-4.79L86.78-4.79Q87.58-3.43 89.38-3.43L89.38-3.43L89.38-3.43Q90.50-3.43 91.27-3.84L91.27-3.84L91.27-3.84Q92.05-4.25 92.52-5.03L92.52-5.03L92.52-12.86L92.52-12.86Q92.05-13.68 91.27-14.13L91.27-14.13L91.27-14.13Q90.50-14.58 89.42-14.58L89.42-14.58L89.42-14.58Q87.63-14.58 86.81-13.00L86.81-13.00L86.81-13.00Q85.98-11.41 85.98-8.87L85.98-8.87Z"></path></g></g> <!----></g></g></svg>