<svg data-v-0c317739="" version="1.0" xmlns="http://www.w3.org/2000/svg"  preserveAspectRatio="xMidYMid meet" color-interpolation-filters="sRGB" height="50"
width="55" ><g class="iconsvg-imagesvg" transform="translate(5,5)"><rect fill="#4f4c4d" fill-opacity="0" x="0" y="0" width="46" height="39.358066780306"></rect> <svg x="0" y="0" width="46" height="39.358066780306" class="imagesvg-svg"><svg xmlns="http://www.w3.org/2000/svg" viewBox="0 0 797.84 682.64"><defs><linearGradient id="a39085294-6c86-4236-bd36-6ec8e49d8e70" x1="144.54" y1="58.66" x2="802.58" y2="58.66" gradientTransform="rotate(66.56 341.455 250.406)" gradientUnits="userSpaceOnUse"><stop offset="0" stop-color="#c2278f"></stop><stop offset=".96" stop-color="#ef4136"></stop></linearGradient><linearGradient id="b25da7016-dd99-48fd-919e-df295a1288c4" x1="194.66" y1="-33.85" x2="773.95" y2="-33.85" gradientTransform="rotate(66.56 341.455 250.406)" gradientUnits="userSpaceOnUse"><stop offset="0" stop-color="#ef4136"></stop><stop offset="1" stop-color="#f7941e"></stop></linearGradient><linearGradient id="c67da4214-7783-4129-8c42-ed569923a718" x1="95.7" y1="151" x2="832.29" y2="151" gradientTransform="rotate(66.56 341.455 250.406)" gradientUnits="userSpaceOnUse"><stop offset="0" stop-color="#662d91"></stop><stop offset="1" stop-color="#92278f"></stop></linearGradient></defs><g><g><path fill="url(#a39085294-6c86-4236-bd36-6ec8e49d8e70)" d="M668.02 611.44L405.44 8.04l82.37 6.38 237.72 547.72-57.51 49.3z"></path><path fill="url(#b25da7016-dd99-48fd-919e-df295a1288c4)" d="M741.97 548.17L510.19 17.26l83.03 6.99 204.62 474.62-55.87 49.3z"></path><path fill="url(#c67da4214-7783-4129-8c42-ed569923a718)" d="M594.89 675.53L301.2 0l81.87 5.21 269.33 620.2-57.51 50.12z"></path><path fill="#4f4c4d" d="M331.13 118.44L124.07 538.31l102.71-64.09 140.51-270.33-36.16-85.45zM405.9 295.92l-27.93-68.2-122.43 228.42 100.24-64.08 50.12-96.14zM284.3 8.34L0 618.01l96.96-61.62L321.27 96.25 284.3 8.34zM532.99 586.24L133.93 553.1l105.17-64.09 260.87 21.07 33.02 76.16zM458.02 413.3l33.18 76.55-230.73-18.92 108.46-64.08 89.09 6.45zM574.79 682.64L7.18 633.56l103.74-64.03 430.84 36.94 33.03 76.17z"></path></g></g></svg></svg> <!----></g></svg>